<?xml version="1.0" standalone="no"?>
<!DOCTYPE svg PUBLIC "-//W3C//DTD SVG 20010904//EN"
 "http://www.w3.org/TR/2001/REC-SVG-20010904/DTD/svg10.dtd">
<svg version="1.0" xmlns="http://www.w3.org/2000/svg"
 width="512.000000pt" height="512.000000pt" viewBox="0 0 512.000000 512.000000"
 preserveAspectRatio="xMidYMid meet">

<g transform="translate(0.000000,512.000000) scale(0.100000,-0.100000)"
fill="#000000" stroke="none">
<path d="M0 2560 l0 -2560 2560 0 2560 0 0 2560 0 2560 -2560 0 -2560 0 0
-2560z m4009 1485 c49 -25 53 -54 36 -289 -21 -294 -28 -336 -60 -363 -18 -16
-39 -23 -68 -23 -38 0 -47 5 -100 62 l-59 62 -21 -30 c-11 -16 -252 -261 -536
-545 -551 -551 -570 -567 -650 -556 -64 8 -99 31 -291 188 -102 83 -198 160
-213 171 l-28 20 -337 -335 c-412 -410 -384 -396 -525 -258 -98 94 -115 137
-83 199 24 45 817 827 858 845 47 22 103 21 153 -2 22 -10 130 -91 239 -180
109 -89 203 -164 210 -167 6 -2 220 205 476 461 l464 465 -40 38 c-48 47 -71
110 -54 151 21 51 54 61 277 80 264 24 317 25 352 6z m-23 -1411 c58 -43 69
-69 66 -150 -5 -131 -4 -168 3 -220 5 -36 3 -67 -8 -105 -14 -48 -14 -59 -2
-94 19 -53 18 -104 0 -160 -14 -40 -14 -50 0 -90 19 -58 19 -102 0 -159 -14
-41 -14 -50 1 -96 13 -39 15 -64 8 -103 -4 -29 -8 -110 -9 -182 0 -144 -6
-164 -58 -192 -29 -16 -67 -18 -379 -18 -334 0 -347 1 -374 21 -68 51 -90 132
-60 227 11 37 12 56 4 79 -7 19 -8 61 -3 117 4 47 6 104 4 126 -2 22 -3 73 -2
113 1 91 1 133 0 225 -1 39 0 90 2 112 2 22 0 79 -4 126 -5 58 -4 97 4 121 9
28 8 42 -4 71 -8 20 -15 61 -15 90 0 68 28 113 90 145 45 22 48 23 377 20 317
-3 333 -4 359 -24z m-1066 -490 c25 -10 48 -29 62 -53 20 -31 22 -47 19 -111
-3 -77 -5 -363 -2 -480 6 -226 1 -340 -14 -369 -32 -64 -45 -66 -412 -69 -315
-3 -335 -2 -378 17 -36 16 -50 29 -65 63 -24 52 -25 112 -5 173 14 40 14 50 0
90 -8 25 -15 61 -15 80 0 19 7 55 15 80 14 40 14 50 0 90 -18 56 -19 107 0
158 10 29 11 55 4 100 -21 145 -9 190 61 225 43 21 52 22 367 22 272 0 329 -2
363 -16z m-1045 -504 c73 -35 102 -126 72 -227 -14 -46 -14 -57 0 -110 24 -87
12 -148 -38 -195 -27 -26 -51 -39 -81 -43 -24 -3 -183 -5 -355 -3 -296 3 -313
4 -339 24 -68 50 -90 132 -61 227 13 41 13 53 1 94 -31 102 -5 196 63 232 36
19 57 20 367 21 309 0 332 -1 371 -20z"/>
<path d="M3670 3942 c-113 -8 -207 -17 -209 -19 -3 -2 25 -34 62 -71 46 -47
67 -75 67 -92 0 -19 -112 -137 -508 -532 -419 -420 -512 -508 -534 -508 -19 0
-55 24 -125 83 -306 259 -372 307 -421 307 -34 0 -59 -23 -429 -392 -216 -216
-396 -401 -399 -411 -12 -37 78 -137 123 -137 12 0 125 108 302 290 155 159
311 315 347 346 57 50 67 56 88 46 12 -5 125 -94 250 -196 125 -102 238 -189
252 -192 13 -3 36 -3 52 1 18 4 215 194 592 571 311 310 572 564 580 564 8 0
45 -31 81 -69 36 -38 70 -66 76 -63 5 4 15 86 22 182 6 96 15 205 18 243 l6
67 -44 -1 c-24 -1 -136 -9 -249 -17z"/>
<path d="M3277 2542 c-23 -26 -22 -94 1 -115 16 -15 55 -17 334 -17 356 0 348
-2 348 78 0 74 8 72 -349 72 -295 0 -319 -1 -334 -18z"/>
<path d="M3276 2294 c-10 -9 -16 -33 -16 -59 0 -75 -2 -75 356 -75 350 0 344
-1 344 74 0 80 19 76 -345 76 -281 0 -326 -2 -339 -16z"/>
<path d="M3277 2042 c-23 -26 -22 -94 1 -115 16 -15 55 -17 334 -17 356 0 348
-2 348 77 0 74 5 73 -352 73 -292 0 -316 -1 -331 -18z"/>
<path d="M3277 1792 c-23 -26 -22 -94 1 -115 16 -15 55 -17 334 -17 356 0 348
-2 348 77 0 74 5 73 -352 73 -292 0 -316 -1 -331 -18z"/>
<path d="M3277 1542 c-23 -26 -22 -94 1 -115 16 -15 55 -17 334 -17 356 0 348
-2 348 78 0 74 8 72 -349 72 -295 0 -319 -1 -334 -18z"/>
<path d="M3277 1292 c-23 -26 -22 -94 1 -115 16 -15 54 -17 328 -17 355 0 354
0 354 74 0 77 7 76 -352 76 -292 0 -316 -1 -331 -18z"/>
<path d="M2226 2044 c-10 -9 -16 -33 -16 -59 0 -75 -1 -75 350 -75 351 0 350
0 350 74 0 77 7 76 -353 76 -274 0 -318 -2 -331 -16z"/>
<path d="M2227 1792 c-23 -26 -22 -94 1 -115 16 -15 55 -17 334 -17 356 0 348
-2 348 77 0 74 5 73 -352 73 -292 0 -316 -1 -331 -18z"/>
<path d="M2227 1542 c-23 -26 -22 -94 1 -115 16 -15 55 -17 334 -17 356 0 348
-2 348 77 0 74 5 73 -352 73 -292 0 -316 -1 -331 -18z"/>
<path d="M2226 1294 c-10 -9 -16 -33 -16 -59 0 -77 -10 -75 349 -75 359 0 351
-2 351 77 0 74 5 73 -353 73 -274 0 -318 -2 -331 -16z"/>
<path d="M1176 1544 c-23 -22 -21 -96 2 -117 16 -15 54 -17 330 -17 299 0 313
1 332 20 26 26 27 90 2 113 -16 15 -55 17 -335 17 -274 0 -318 -2 -331 -16z"/>
<path d="M1177 1292 c-22 -24 -22 -95 -1 -116 23 -24 628 -24 662 0 29 20 31
85 2 114 -19 19 -33 20 -333 20 -291 0 -315 -1 -330 -18z"/>
</g>
</svg>
